Run_50001
nRows=4
nColumns=164

# SIMM Motion File Header:
name Run_50001
datacolumns 164
datarows 4
otherdata 1
range 0.01666700 0.04166700
endheader
time	pelvis_tilt	pelvis_list	pelvis_rotation	pelvis_tx	pelvis_ty	pelvis_tz	hip_flexion_r	hip_adduction_r	hip_rotation_r	knee_angle_r	ankle_angle_r	hip_flexion_l	hip_adduction_l	hip_rotation_l	knee_angle_l	ankle_angle_l	lumbar_extension	lumbar_bending	lumbar_rotation	arm_flex_r	arm_add_r	arm_rot_r	elbow_flex_r	pro_sup_r	arm_flex_l	arm_add_l	arm_rot_l	elbow_flex_l	pro_sup_l	subtalar_angle_r	mtp_angle_r	subtalar_angle_l	mtp_angle_l	wrist_flex_r	wrist_dev_r	wrist_flex_l	wrist_dev_l	RASI_tx	RASI_ty	RASI_tz	LPSI_tx	LPSI_ty	LPSI_tz	RPSI_tx	RPSI_ty	RPSI_tz	RTH3_tx	RTH3_ty	RTH3_tz	LTH1_tx	LTH1_ty	LTH1_tz	LTH2_tx	LTH2_ty	LTH2_tz	LTH3_tx	LTH3_ty	LTH3_tz	RTB1_tx	RTB1_ty	RTB1_tz	RTB2_tx	RTB2_ty	RTB2_tz	RTB3_tx	RTB3_ty	RTB3_tz	LTB1_tx	LTB1_ty	LTB1_tz	LTB2_tx	LTB2_ty	LTB2_tz	LTB3_tx	LTB3_ty	LTB3_tz	RCAL_tx	RCAL_ty	RCAL_tz	RTOE_tx	RTOE_ty	RTOE_tz	RMT5_tx	RMT5_ty	RMT5_tz	LCAL_tx	LCAL_ty	LCAL_tz	LTOE_tx	LTOE_ty	LTOE_tz	LMT5_tx	LMT5_ty	LMT5_tz	LACR_tx	LACR_ty	LACR_tz	RACR_tx	RACR_ty	RACR_tz	CLAV_tx	CLAV_ty	CLAV_tz	C7_tx	C7_ty	C7_tz	RUA1_tx	RUA1_ty	RUA1_tz	RUA2_tx	RUA2_ty	RUA2_tz	RUA3_tx	RUA3_ty	RUA3_tz	RLEL_tx	RLEL_ty	RLEL_tz	LUA1_tx	LUA1_ty	LUA1_tz	LUA2_tx	LUA2_ty	LUA2_tz	LUA3_tx	LUA3_ty	LUA3_tz	LLEL_tx	LLEL_ty	LLEL_tz	LMEL_tx	LMEL_ty	LMEL_tz	RFAsuperior_tx	RFAsuperior_ty	RFAsuperior_tz	RFAradius_tx	RFAradius_ty	RFAradius_tz	RFAulna_tx	RFAulna_ty	RFAulna_tz	LFAsuperior_tx	LFAsuperior_ty	LFAsuperior_tz	LFAradius_tx	LFAradius_ty	LFAradius_tz	LFAulna_tx	LFAulna_ty	LFAulna_tz	LASI_tx	LASI_ty	LASI_tz	RTH1_tx	RTH1_ty	RTH1_tz	RMEL_tx	RMEL_ty	RMEL_tz	RTH2_tx	RTH2_ty	RTH2_tz
      0.01666700	    -17.92467128	     15.57050541	     17.00067513	      0.99660311	      0.90227403	     -0.36244858	     24.02983239	    -31.74567785	    -11.18834249	   -135.80059546	     -2.93865247	     41.54095923	     35.89041999	      5.93621811	    -41.35348485	      9.64857894	      1.19260924	    -19.29331359	    -18.00408738	    -36.71916786	    -24.23741039	      1.49568161	     70.51276541	    113.99549253	    -36.16764677	    -25.85368310	     -5.34637540	    108.55710108	    111.75381031	      0.00000000	      0.00000000	      0.00000000	      0.00000000	      0.00000000	      0.00000000	      0.00000000	      0.00000000	      1.02910683	      0.85965203	     -0.29974567	      0.84562384	      0.99824899	     -0.35005918	      0.85969463	      0.98401661	     -0.25395254	      0.97207050	      0.52363079	     -0.15571799	      0.98231090	      0.78464413	     -0.49649194	      1.06759110	      0.69775036	     -0.47152467	      1.04782909	      0.57750425	     -0.43061715	      0.85753787	      0.45175126	     -0.22837238	      0.81741855	      0.51710790	     -0.17381139	      0.75952187	      0.52865302	     -0.24173426	      1.10591755	      0.37733350	     -0.32480667	      1.05326107	      0.30472131	     -0.39242903	      1.04673632	      0.21667270	     -0.30669929	      0.67967840	      0.70006338	     -0.26412990	      0.54633001	      0.53636237	     -0.27958235	      0.54512347	      0.56900453	     -0.18754596	      0.90544848	      0.10969149	     -0.29048511	      1.10807166	      0.07384807	     -0.26282256	      1.09436166	      0.06132102	     -0.35377226	      1.01445140	      1.40474475	     -0.52902678	      1.00977091	      1.41331235	     -0.13040079	      1.07016360	      1.40201094	     -0.30812075	      0.94749907	      1.46949515	     -0.34581081	      0.92878065	      1.30097103	     -0.07267848	      0.85584588	      1.31422963	     -0.08816316	      0.87159848	      1.23741392	     -0.04029872	      0.81921075	      1.18990860	     -0.01471764	      0.93685967	      1.28942387	     -0.59321673	      0.85879623	      1.26411386	     -0.59333625	      0.91068779	      1.20678630	     -0.61333969	      0.84582659	      1.15409828	     -0.64300328	      0.80221953	      1.15442133	     -0.56708586	      0.87667804	      1.07421459	     -0.02249593	      0.90757021	      0.96742245	     -0.07463810	      0.87453899	      0.95190157	     -0.01331484	      0.94742248	      1.07925030	     -0.61451818	      1.03371199	      1.05034404	     -0.52100217	      1.02139115	      1.00692943	     -0.57353901	      1.00082339	      0.96809537	     -0.44060800	      0.97274166	      0.77428677	     -0.14827814	      0.78225892	      1.17423128	     -0.08730771	      0.00000000	      0.00000000	     -0.00000000
      0.02500000	    -10.66904460	     12.38880767	     11.95518333	      0.99643422	      0.91386585	     -0.34644983	     23.83073592	    -23.74606738	     -9.03625427	   -136.74995078	     -1.98231621	     32.74006954	     28.59456885	      4.78174814	    -43.46051498	     14.43327551	     -5.50041097	    -14.54409116	    -16.36593131	    -33.16306891	    -22.72761603	      2.45665623	     63.82401769	    114.76791707	    -31.73818402	    -26.54086233	     -4.69509867	    106.54576674	    110.83129743	      0.00000000	      0.00000000	      0.00000000	      0.00000000	      0.00000000	      0.00000000	      0.00000000	      0.00000000	      1.02616976	      0.90085880	     -0.25127400	      0.84346755	      0.99800522	     -0.35092069	      0.85663682	      0.98383866	     -0.25441903	      0.99711962	      0.52426042	     -0.15357659	      0.97313475	      0.78216108	     -0.49661303	      1.05712429	      0.69504161	     -0.47230105	      1.03358659	      0.57232073	     -0.43027965	      0.88837635	      0.44936338	     -0.22732054	      0.84662068	      0.51342238	     -0.17161976	      0.78783492	      0.52282100	     -0.23902531	      1.08038996	      0.36932598	     -0.32510112	      1.02543695	      0.29871522	     -0.39229586	      1.01481380	      0.21162915	     -0.30646091	      0.70076221	      0.69460484	     -0.26408439	      0.57616065	      0.52380033	     -0.27673569	      0.57622022	      0.55586175	     -0.18435423	      0.86719294	      0.11048095	     -0.29146321	      1.06955918	      0.07327043	     -0.26282527	      1.05576540	      0.06090682	     -0.35399355	      1.01875733	      1.40044262	     -0.52828805	      1.00501855	      1.41044816	     -0.12998546	      1.06945096	      1.39898038	     -0.30635135	      0.94763045	      1.46646715	     -0.34667356	      0.92122828	      1.29908903	     -0.07381292	      0.84928131	      1.31175949	     -0.09345047	      0.86201558	      1.23655240	     -0.04279734	      0.80864938	      1.18907663	     -0.01846497	      0.94498987	      1.28352516	     -0.59297153	      0.86745695	      1.25659386	     -0.59478731	      0.92163595	      1.20079905	     -0.61385741	      0.85976030	      1.14520030	     -0.64532632	      0.81261658	      1.14438716	     -0.57156090	      0.86097054	      1.07044467	     -0.02137383	      0.88725231	      0.96054788	     -0.06983621	      0.85167420	      0.94842436	     -0.00911277	      0.96235445	      1.07298138	     -0.61319134	      1.04585743	      1.04845410	     -0.51735643	      1.03628255	      1.00341166	     -0.56928141	      0.99820629	      0.96705599	     -0.44156976	      0.97612108	      0.77199408	     -0.14846968	      0.77431604	      1.17257429	     -0.09214645	      0.00000000	      0.00000000	     -0.00000000
      0.03333300	     -5.68112972	     10.32455703	      8.78894983	      0.99590313	      0.92206454	     -0.33596740	     24.41862270	    -18.79341774	     -7.51987956	   -137.46204964	     -0.71125050	     25.44030333	     23.84977293	      3.61680248	    -44.14665657	     17.88944295	    -10.50659948	    -11.91376432	    -15.51032776	    -31.22290295	    -21.73758633	      2.77366024	     59.01941785	    115.54975622	    -28.63321254	    -27.14937137	     -4.41280332	    105.86806524	    110.18138968	      0.00000000	      0.00000000	      0.00000000	      0.00000000	      0.00000000	      0.00000000	      0.00000000	      0.00000000	      1.02316500	      0.92762713	     -0.21908375	      0.84156190	      0.99766324	     -0.35191106	      0.85336380	      0.98339539	     -0.25527173	      1.02205502	      0.52711607	     -0.15222166	      0.96452541	      0.77996763	     -0.49662795	      1.04765249	      0.69190796	     -0.47255466	      1.01846252	      0.56742118	     -0.42998952	      0.91867410	      0.44844811	     -0.22700504	      0.87499443	      0.51048451	     -0.17018615	      0.81552560	      0.51775231	     -0.23879250	      1.05498945	      0.36110865	     -0.32497115	      0.99774481	      0.29250245	     -0.39169569	      0.98243423	      0.20708656	     -0.30606830	      0.71944511	      0.68772255	     -0.26392227	      0.60571363	      0.50922937	     -0.27405310	      0.60662124	      0.54082485	     -0.18147481	      0.82935253	      0.11142682	     -0.29227177	      1.03145836	      0.07282159	     -0.26291810	      1.01755772	      0.06055410	     -0.35418472	      1.02292190	      1.39726238	     -0.52733578	      1.00006290	      1.40834107	     -0.12952031	      1.06862473	      1.39664001	     -0.30438714	      0.94763135	      1.46421203	     -0.34741728	      0.91355814	      1.29797908	     -0.07499167	      0.84274616	      1.31045631	     -0.09859529	      0.85239072	      1.23663450	     -0.04532218	      0.79800477	      1.18939032	     -0.02227218	      0.95264091	      1.27887892	     -0.59277344	      0.87597331	      1.24999875	     -0.59575083	      0.93239604	      1.19582359	     -0.61421342	      0.87348843	      1.13763512	     -0.64716774	      0.82354039	      1.13560980	     -0.57532092	      0.84534341	      1.06810621	     -0.02063156	      0.86720845	      0.95545608	     -0.06585794	      0.82931609	      0.94650381	     -0.00580694	      0.97719366	      1.06830297	     -0.61123590	      1.05792608	      1.04804538	     -0.51305974	      1.05124065	      1.00154429	     -0.56445344	      0.99598586	      0.96610748	     -0.44233885	      0.97835672	      0.77064965	     -0.14859282	      0.76623158	      1.17209508	     -0.09693602	      0.00000000	      0.00000000	     -0.00000000
      0.04166700	     -3.96196371	      9.63497414	      7.38982895	      0.99455180	      0.92455149	     -0.33238218	     27.70166991	    -16.99098022	     -5.98406716	   -138.23758479	      0.89843017	     20.94952050	     22.20747080	      3.57041898	    -43.85502778	     20.24974431	    -12.31484516	    -11.01347448	    -15.79975139	    -30.97719165	    -21.45126523	      2.55903842	     56.22869983	    116.31804227	    -26.61098718	    -27.40116308	     -4.25686506	    106.24436245	    110.05702291	      0.00000000	      0.00000000	      0.00000000	      0.00000000	      0.00000000	      0.00000000	      0.00000000	      0.00000000	      1.02011650	      0.93585329	     -0.20802525	      0.84014223	      0.99730258	     -0.35318245	      0.85000707	      0.98277738	     -0.25676443	      1.04653598	      0.53352663	     -0.15208448	      0.95712660	      0.77819657	     -0.49656559	      1.03927227	      0.68779835	     -0.47208373	      1.00204558	      0.56298901	     -0.42980536	      0.94804255	      0.44995228	     -0.22787131	      0.90196895	      0.50871224	     -0.16997212	      0.84228093	      0.51377878	     -0.24227067	      1.02951627	      0.35305191	     -0.32438166	      0.96999331	      0.28642785	     -0.39059303	      0.94946610	      0.20342535	     -0.30552480	      0.73438253	      0.67837261	     -0.26356282	      0.63491706	      0.49151412	     -0.27164945	      0.63583275	      0.52279428	     -0.17914163	      0.79217813	      0.11253551	     -0.29283039	      0.99402649	      0.07253341	     -0.26317091	      0.98000495	      0.06029312	     -0.35437344	      1.02690748	      1.39588481	     -0.52608355	      0.99479810	      1.40748274	     -0.12898204	      1.06761618	      1.39548498	     -0.30214219	      0.94747255	      1.46326058	     -0.34799817	      0.90569032	      1.29818264	     -0.07623876	      0.83614785	      1.31099672	     -0.10340871	      0.84271451	      1.23822301	     -0.04787393	      0.78723328	      1.19149791	     -0.02617891	      0.95963104	      1.27621462	     -0.59256483	      0.88422912	      1.24493422	     -0.59609726	      0.94282314	      1.19255783	     -0.61427861	      0.88684591	      1.13220436	     -0.64825829	      0.83502585	      1.12892280	     -0.57797691	      0.82990427	      1.06808429	     -0.02052817	      0.84775984	      0.95325113	     -0.06326317	      0.80793925	      0.94708506	     -0.00396568	      0.99176734	      1.06620971	     -0.60833341	      1.06972706	      1.05003483	     -0.50775594	      1.06618528	      1.00239935	     -0.55873042	      0.99446582	      0.96530128	     -0.44271704	      0.97904309	      0.77091264	     -0.14863266	      0.75786576	      1.17350703	     -0.10163090	     -0.00000000	     -0.00000000	      0.00000000
